<svg width="160" height="68" viewBox="0 0 160 68" fill="none" xmlns="http://www.w3.org/2000/svg">
<path d="M2.97637 26.2903C2.07527 24.2056 4.1949 23.8902 3.47129 20.4924C2.47803 19.8135 1.93874 19.2238 1.89436 18.226C1.84999 17.4546 2.48144 16.8203 3.1129 16.7757C3.22895 16.7654 3.35183 16.7688 3.46105 16.81C3.5259 16.834 3.58734 16.8751 3.62147 16.9403C3.64878 16.9883 3.66243 17.0534 3.64878 17.1083C3.63513 17.1734 3.58393 17.2009 3.5259 17.2283C3.45422 17.2626 3.38254 17.3037 3.31428 17.3517C3.2426 17.4032 3.17433 17.4649 3.13337 17.5403C3.08559 17.6226 3.06511 17.722 3.06511 17.818C3.06511 18.0066 3.12655 18.1917 3.28015 18.3083C3.42692 18.4215 3.62147 18.4558 3.80238 18.4592C4.05496 18.466 4.29047 18.4352 4.51234 18.3117C4.74102 18.1849 4.93558 18.0066 5.12331 17.8283C5.21888 17.7357 5.31445 17.6397 5.40661 17.5472C7.2566 15.6888 11.4481 13.1516 14.8784 13.6522C14.2026 13.155 14.0661 12.2464 13.6155 11.1595C13.6155 11.1595 16.1413 10.6144 17.0424 11.475C19.657 10.0246 21.4626 11.9276 23.5822 11.1595C23.5822 11.1595 24.0772 12.6544 23.5822 13.4259C23.1317 14.1973 22.0941 15.1025 20.9677 15.7814C20.1553 16.2785 20.5615 17.2317 21.9132 17.9552C23.2648 18.6786 24.8008 19.2683 24.8008 19.2683C24.3946 19.9472 23.3126 20.0844 22.3671 20.0398C21.1042 19.9952 18.2644 18.9975 13.3015 20.1769C8.34202 21.3564 5.54314 23.8011 4.37239 24.888C3.56345 25.656 3.02415 26.2903 2.97637 26.2903ZM44.154 8.66688C45.4169 9.39033 46.8163 10.8407 48.4376 10.2989C43.4304 18.5449 31.7502 18.9529 25.5722 21.8501C23.9953 22.5736 22.4593 24.3428 20.7458 24.1165C13.892 23.2113 5.68308 26.1154 4.3758 31.2824C4.28706 31.5533 4.56695 31.855 4.79222 31.6287C9.70732 25.92 13.9364 26.5646 19.8447 27.0172C20.6571 27.0617 21.2885 26.8354 20.9267 27.6069C19.5751 30.6858 20.4762 32.2733 19.6194 34.358C17.2745 37.8004 14.974 44.9148 14.9296 45.6829C14.9296 45.772 14.974 45.82 15.0662 45.82C16.5987 45.5492 17.906 44.188 18.6296 42.8748C21.3363 37.8929 22.2374 39.1135 24.538 37.4369C28.8216 34.3099 28.2345 32.5888 31.2587 30.7338C36.2181 27.6995 46.4102 25.2514 47.9905 26.2491C50.2467 27.6995 51.1921 27.8332 53.9876 26.9726C57.9094 25.7931 60.9336 24.5279 65.2173 24.888C65.3743 24.888 65.5313 24.8674 65.6849 24.8434C65.8589 24.8194 66.0569 24.7954 66.2173 24.7131C66.3163 24.6617 66.3061 24.5451 66.289 24.4525C66.2651 24.3222 66.2412 24.1919 66.1969 24.0651C66.0433 23.6228 65.7053 23.3005 65.306 23.0742C64.8179 22.7999 64.2615 22.649 63.7291 22.4845C61.3842 21.761 58.5443 22.6216 54.0798 23.4822C52.3219 20.9004 53.6292 16.7791 54.305 14.6945C54.5303 13.971 58.2269 14.1048 59.2645 13.0624C60.0769 12.2464 60.4387 10.8887 60.664 10.2098C60.7527 9.93892 60.3499 9.80177 60.1212 9.80177C59.5785 9.80177 58.6331 9.93892 57.6876 10.0281C56.5612 10.1652 56.155 7.80971 52.2741 7.89886C50.6051 6.26681 48.8029 6.7674 46.6832 7.76171C46.0074 8.07715 45.0585 7.80629 44.2018 8.16973C43.9253 8.2143 43.9253 8.53316 44.154 8.66688ZM63.6335 32.4516C51.6359 48.5801 30.8935 60.0867 15.3802 51.9299C12.6735 50.5242 11.0521 47.9424 11.0044 45.0451C10.8678 38.0232 13.3493 36.3912 15.1071 31.4984C15.288 31.0013 5.36565 31.0904 5.096 38.973C3.42692 36.4803 0 36.5283 0 37.6152C1.93873 39.6998 3.92184 42.7342 8.70382 50.027C13.3937 57.2306 21.3329 62.6651 29.2687 63.5737C26.6064 63.9371 22.6846 63.7108 17.7251 62.1234C17.0049 61.8971 16.5987 62.8948 17.2302 63.2548C30.3542 70.7293 45.0995 68.7819 55.1584 61.5336C61.6538 56.8672 65.7565 49.5298 67.2447 44.908C71.8424 30.3224 66.2515 28.9166 63.6335 32.4516ZM57.6364 31.4984C57.4555 31.2722 54.2538 31.6802 54.1173 31.7247C53.5302 31.543 53.1718 31.0459 52.4482 31.4093C51.6802 31.7727 51.7724 32.5888 52.3595 32.8151C51.9089 33.3122 49.3387 34.8071 47.8949 35.0334C46.1371 35.3043 43.5191 34.3545 40.3619 34.2174C38.0613 34.1282 33.9586 35.2151 31.2962 38.5204C27.8693 42.7342 26.289 47.2189 16.684 48.9401C16.8206 48.9401 17.8855 49.3653 20.3226 49.4133C28.8899 49.5024 34.1838 41.1056 34.2282 41.0576C34.5422 41.3284 35.7164 42.2816 34.4091 44.8634C33.6411 46.4029 32.6035 48.4875 33.9142 47.7641C35.515 46.8932 36.2762 45.2474 37.5766 43.8657C39.3174 42.0176 41.8398 40.4439 46.7651 39.9261C49.3797 39.6553 46.2224 44.0474 49.0657 42.0999C50.1477 41.3285 52.4926 39.1992 53.9808 36.2574C55.1993 33.9019 57.0015 32.9488 57.3633 32.6779C57.6808 32.4516 57.8173 31.7247 57.6364 31.4984ZM48.7039 2.27926C48.6868 2.2244 48.6151 2.21069 48.5673 2.19697C48.4991 2.1764 48.4308 2.16268 48.3625 2.14554C48.1748 2.1044 47.9905 2.06325 47.8062 2.00839C47.3556 1.87125 46.5876 1.41866 46.5876 1.41866C45.9562 0.420917 45.0551 0.0609045 44.1984 0.012903C43.2973 -0.0316698 40.5018 0.51006 38.0204 0.376342C34.9075 0.194622 28.866 -0.395109 26.1593 0.420916C23.4082 1.23694 18.6262 3.49987 16.824 4.72391C15.0184 5.99252 14.974 6.03709 14.974 6.03709C18.4453 6.35253 21.6947 6.89769 22.8211 6.89769C24.5345 6.94226 25.4834 6.89769 26.0227 6.76054C26.2036 7.43942 27.33 9.11604 27.5109 9.34233C27.9615 9.79492 29.5418 10.9744 30.6238 11.5161C31.7502 12.0613 32.9244 12.2396 34.2316 12.195C35.4502 12.1504 35.1771 12.0133 35.1771 12.0133L32.9209 8.97889C37.9726 12.1504 42.4371 11.6053 42.4371 11.6053C42.4371 11.6053 42.0753 11.4235 40.8602 10.3366C39.0102 8.7046 37.1158 5.39936 36.2591 4.44618C35.8086 3.94903 35.358 3.58559 35.0406 3.31472L36.7097 2.68041C37.1602 2.49869 40.9933 1.86439 42.7511 2.68041C45.0073 3.67816 46.6286 2.76956 47.3522 2.86213C47.6526 2.9067 47.9768 2.94099 48.2738 2.85871C48.4206 2.82099 48.5639 2.74556 48.6424 2.61184C48.6902 2.52955 48.7107 2.43698 48.7073 2.3444C48.7073 2.32726 48.7073 2.31012 48.7039 2.2964C48.7073 2.29297 48.7073 2.28612 48.7039 2.27926Z" fill="#009CEB"/>
<path d="M90.5491 18.1189H85.6503V22.91H83.0444V11H85.6503V15.7911H90.5491V11H93.155V22.91H90.5491V18.1189ZM99.4928 23.0625C102.055 23.0625 103.582 21.4971 103.582 19.2574V14.019H101.02V19.2574C101.02 20.2434 100.435 20.7787 99.4928 20.7787C98.5505 20.7787 98.0096 20.24 98.0096 19.2574V14.019H95.4479V19.2574C95.4479 21.4971 96.9312 23.1065 99.4928 23.0625ZM118.557 17.0414C118.557 15.0728 117.659 13.8191 115.679 13.8191C114.557 13.8191 113.703 14.4019 113.118 15.3405C112.669 14.4019 111.903 13.8191 110.644 13.8191C109.43 13.8191 108.62 14.49 108.171 15.2524H108.127L107.858 14.0427H105.882V22.9066H108.488V17.5801C108.488 16.8178 108.937 16.1469 109.791 16.1469C110.644 16.1469 110.961 16.6382 110.961 17.5801V22.9066H113.523V17.4887C113.523 16.7737 113.972 16.1469 114.825 16.1469C115.679 16.1469 115.996 16.6382 115.996 17.5801V22.9066H118.557V17.0414ZM124.089 23.1302C125.436 23.1302 126.426 22.5034 127.011 21.5648L127.28 22.9066H129.437V14.0427H127.28L127.011 15.3845C126.426 14.49 125.44 13.8191 124.089 13.8191C122.065 13.8191 120.133 15.6996 120.133 18.5187C120.136 21.2971 122.068 23.1777 124.089 23.1302ZM122.698 18.5221C122.698 17.1803 123.64 16.1943 124.81 16.1943C125.98 16.1943 126.879 17.1803 126.879 18.5221C126.879 19.8639 125.98 20.8499 124.81 20.8499C123.596 20.8499 122.698 19.8639 122.698 18.5221ZM139.84 16.9974C139.84 14.9813 138.626 13.8191 136.785 13.8191C135.526 13.8191 134.628 14.4459 134.087 15.2964H134.043L133.774 14.0427H131.798V22.9066H134.359V17.6682C134.359 16.7737 134.945 16.1469 135.887 16.1469C136.785 16.1469 137.282 16.6382 137.282 17.7123V22.9066H139.843V16.9974H139.84ZM146.607 23.1302C147.729 23.1302 148.808 22.8626 149.709 22.3238V20.2196C148.855 20.8024 147.909 21.1142 146.923 21.1142C145.576 21.1142 144.497 20.4433 144.137 19.1896H150.206C150.25 18.966 150.25 18.6509 150.25 18.3391C150.25 15.3845 148.362 13.8191 146.113 13.8191C143.64 13.8191 141.663 15.6996 141.663 18.5187C141.663 21.2057 143.463 23.1777 146.607 23.1302ZM144.045 17.7157C144.269 16.5975 145.079 15.8792 146.069 15.8792C147.059 15.8792 147.777 16.5501 147.777 17.7157H144.045ZM90.8519 31.4554L93.3693 39.8279H96.0229L99.4826 27.9179H96.921L94.6723 36.6937H94.6281L92.0222 27.9179H89.5966L87.0349 36.6937H86.9907L84.6535 27.9179H82L85.5516 39.8279H88.2936L90.8519 31.4554ZM104.242 40.0956C106.895 40.0956 108.916 38.2151 108.916 35.44C108.916 32.665 106.848 30.7845 104.242 30.7845C101.636 30.7845 99.5677 32.665 99.5677 35.44C99.5677 38.1676 101.592 40.0956 104.242 40.0956ZM102.174 35.4366C102.174 33.9593 103.164 33.1089 104.242 33.1089C105.276 33.1089 106.31 33.9593 106.31 35.4366C106.31 36.914 105.32 37.7644 104.242 37.7644C103.208 37.7678 102.174 36.9174 102.174 35.4366ZM110.505 30.9607V39.8245H113.067V35.4807C113.067 33.8238 114.101 33.241 115.179 33.241C115.404 33.241 115.673 33.2851 115.897 33.3291V30.9132C115.717 30.8692 115.492 30.8692 115.223 30.8692C114.414 30.8692 113.38 31.2283 112.798 32.3024H112.754L112.485 30.9607H110.505ZM117.7 39.8245H120.262V33.1089V26.976H117.7V39.8245ZM126.035 40.0482C127.294 40.0482 128.328 39.4213 128.913 38.4828L129.182 39.8245H131.339V26.976H128.777V32.2584C128.236 31.3639 127.249 30.737 126.035 30.737C123.966 30.737 122.078 32.5735 122.078 35.3926C122.082 38.2151 124.014 40.0482 126.035 40.0482ZM124.688 35.3926C124.688 34.0508 125.63 33.0648 126.8 33.0648C127.971 33.0648 128.869 34.0508 128.869 35.3926C128.869 36.7344 127.971 37.7204 126.8 37.7204C125.586 37.7204 124.688 36.7378 124.688 35.3926ZM137.969 33.0648V39.8245H140.531V33.0648H142.868V30.9607H140.531V30.2898C140.531 29.4393 140.98 29.0801 141.925 29.0801C142.419 29.0801 142.868 29.1682 143.184 29.2597V27.1115C142.599 26.9319 142.106 26.8438 141.476 26.8438C139.183 26.8438 137.969 28.4093 137.969 30.0662V30.9607H136.754V33.0648H137.969ZM148.331 40.0956C150.985 40.0956 153.006 38.2151 153.006 35.44C153.006 32.665 150.937 30.7845 148.331 30.7845C145.725 30.7845 143.657 32.665 143.657 35.44C143.657 38.1676 145.678 40.0956 148.331 40.0956ZM146.263 35.4366C146.263 33.9593 147.253 33.1089 148.331 33.1089C149.41 33.1089 150.444 33.9593 150.444 35.4366C150.444 36.914 149.41 37.7644 148.331 37.7644C147.297 37.7678 146.263 36.9174 146.263 35.4366ZM154.608 30.9607V39.8245H157.17V35.4807C157.17 33.8238 158.204 33.241 159.282 33.241C159.507 33.241 159.775 33.2851 160 33.3291V30.9132C159.82 30.8692 159.595 30.8692 159.326 30.8692C158.517 30.8692 157.483 31.2283 156.901 32.3024H156.857L156.588 30.9607H154.608ZM94.7777 56.7425L90.2395 44.8325H87.2288L82.7348 56.7425H85.4768L86.511 53.8319H91.005L92.0834 56.7425H94.7777ZM90.2838 51.6837H87.2288L88.7563 47.5194L90.2838 51.6837ZM104.388 50.8332C104.388 48.8646 103.174 47.699 101.333 47.655C100.075 47.655 99.1765 48.2818 98.6356 49.1323H98.5913L98.3226 47.8786H96.346V56.7425H98.9077V51.5041C98.9077 50.6096 99.5371 49.9828 100.435 49.9828C101.333 49.9828 101.83 50.4741 101.83 51.5482V56.7425H104.392V50.8332H104.388ZM106.63 45.2831C106.63 46.0455 107.26 46.6724 108.025 46.6724C108.79 46.6724 109.42 46.0455 109.42 45.2831C109.42 44.5208 108.79 43.8939 108.025 43.8939C107.215 43.8939 106.63 44.4767 106.63 45.2831ZM106.742 56.7425H109.304V47.8786H106.742V51.9039V56.7425ZM130.083 56.9661C131.43 56.9661 132.42 56.3393 133.005 55.4007L133.274 56.7425H135.431V47.8786H133.274L133.005 49.2204C132.42 48.3259 131.434 47.655 130.083 47.655C128.059 47.655 126.127 49.5355 126.127 52.3546C126.127 55.133 128.059 57.0135 130.083 56.9661ZM128.688 52.3546C128.688 51.0128 129.631 50.0268 130.801 50.0268C131.971 50.0268 132.869 51.0128 132.869 52.3546C132.869 53.6964 131.971 54.6824 130.801 54.6824C129.587 54.6858 128.688 53.6998 128.688 52.3546ZM148.746 48.3157C148.073 47.9125 146.994 47.6448 145.916 47.7329C143.623 47.7329 142.276 48.9425 142.276 50.552C142.276 52.1649 143.623 52.7443 145.018 53.1475C146.188 53.4592 146.817 53.6388 146.817 54.1775C146.817 54.6688 146.324 54.9399 145.423 54.9399C144.12 54.9399 143.13 54.4486 142.368 53.8217V56.1495C143.177 56.6883 144.256 57 145.559 57C147.94 57 149.335 55.8819 149.335 54.1335C149.335 52.2529 147.763 51.7616 146.324 51.4025C145.29 51.1348 144.797 50.9552 144.797 50.4639C144.797 50.0166 145.246 49.749 146.055 49.749C147.045 49.749 148.124 50.0607 148.753 50.5113V48.3157H148.746ZM124.524 50.8773C124.524 48.9087 123.626 47.655 121.646 47.655C120.524 47.655 119.67 48.2378 119.085 49.1763C118.636 48.2378 117.87 47.655 116.611 47.655C115.397 47.655 114.587 48.3259 114.138 49.0882H114.094L113.825 47.8786H111.849V56.7425H114.455V51.416C114.455 50.6537 114.904 49.9828 115.758 49.9828C116.611 49.9828 116.928 50.4741 116.928 51.416V56.7425H119.49V51.3245C119.49 50.6096 119.939 49.9828 120.792 49.9828C121.646 49.9828 121.963 50.4741 121.963 51.416V56.7425H124.524V50.8773ZM137.71 56.7425H140.272V43.8939H137.71V50.0268V56.7425Z" fill="black"/>
<path d="M150.555 54.6924H151.165V56.3758H151.516V54.6924H152.126V54.3906H150.555V54.6924ZM154.569 54.3906V56.3758H154.218V55.0249L153.611 56.3758H153.427L152.82 55.0249V56.3758H152.47V54.3906H152.897L153.518 55.8478L154.139 54.3906H154.569Z" fill="black"/>
</svg>
