<?xml version="1.0" encoding="UTF-8"?> <svg xmlns="http://www.w3.org/2000/svg" width="57" height="38" viewBox="0 0 57 38" fill="none"> <circle cx="26.8804" cy="18.8804" r="18.8804" fill="url(#paint0_linear_486_1188)"></circle> <circle cx="26.8804" cy="18.8804" r="18.4637" stroke="white" stroke-opacity="0.5" stroke-width="0.833333"></circle> <path d="M3.70041 22.4011C3.76976 23.0743 3.72886 23.2358 3.32649 23.8509C2.96389 24.4008 2.93135 24.6099 3.1167 25.1279L3.25289 25.5118L2.99683 25.8311C2.65834 26.2481 2.50469 26.6481 2.38187 27.4425C2.33068 27.7993 2.25796 28.2091 2.22545 28.3563C2.15899 28.6342 1.85179 29.1863 1.48884 29.6855C1.36847 29.8536 1.27071 29.9965 1.27617 30.0114C1.2962 30.066 2.39894 30.2196 2.7872 30.2237C3.14192 30.2233 3.26953 30.199 3.71874 30.0344C4.54497 29.7315 5.17005 29.215 6.03015 28.1109L6.43941 27.589L7.31902 27.7793C10.1011 28.3933 11.0122 28.3467 14.7661 27.4044C16.7321 26.9091 17.5079 26.7542 18.4737 26.6706C19.2171 26.601 19.3972 26.6082 20.431 26.7475C21.4452 26.8828 21.8334 26.887 22.8597 26.7699C27.0342 26.3045 32.561 24.4024 38.1317 21.5151C38.5328 21.3061 38.9682 21.0789 39.1031 21.0125L39.347 20.8837L39.3812 21.0514C39.398 21.1467 39.4868 21.4635 39.5822 21.7609C39.7311 22.2416 39.7719 22.3281 39.9129 22.5017C40.1093 22.7396 40.3295 22.7941 40.6183 22.6883C40.887 22.5898 41.1044 22.3016 41.2788 21.8094C41.4511 21.3237 41.6572 20.2847 41.6559 19.8964L41.6553 19.6093L41.9018 19.4626C42.0352 19.3799 42.3503 19.1968 42.6004 19.06C44.3019 18.1038 45.8769 16.9518 47.5086 15.4578C49.1177 13.989 50.0397 12.9298 50.7588 11.714C51.4461 10.5605 51.7063 9.86792 51.7168 9.1767C51.7221 8.89307 51.705 8.80919 51.5862 8.55974C51.5141 8.40025 51.4431 8.26853 51.4296 8.25657C51.4139 8.25105 51.3227 8.31264 51.2228 8.39998C51.1211 8.48235 51.0317 8.54891 51.0219 8.54689C51.0142 8.53842 50.9134 8.28806 50.7965 7.98159C50.6122 7.49135 50.5805 7.42972 50.5163 7.45325C50.3318 7.52088 48.6733 7.88661 48.1592 7.97365C47.8424 8.02782 47.0742 8.12913 46.4555 8.20381C44.0544 8.49244 43.5997 8.58023 42.4479 8.96303C41.6826 9.22105 41.323 9.36975 40.4151 9.80964C38.9091 10.542 37.5998 11.0164 35.4526 11.6006C34.567 11.8408 33.4105 12.1859 32.8858 12.3557C31.2111 12.9133 28.4173 14.129 25.3543 15.6406C24.9839 15.8215 23.7455 16.4895 22.5994 17.1238C19.71 18.7239 19.2108 18.9632 16.2985 20.1661C13.6553 21.259 12.7751 21.7 11.1826 22.7176C9.48473 23.8076 9.22073 23.9439 7.92523 24.4188L7.07093 24.7319L7.13486 24.4099C7.22655 23.965 7.21758 23.6302 7.11015 23.3372C6.82794 22.5673 5.97975 22.2022 4.28821 22.118C3.95391 22.0997 3.68086 22.0871 3.67685 22.0886C3.67283 22.09 3.68408 22.2324 3.70041 22.4011ZM50.6819 8.15317C50.7966 8.46607 50.857 8.68056 50.833 8.68938C50.8089 8.6982 50.7164 8.49548 50.6017 8.18257C50.487 7.86967 50.4266 7.65518 50.4506 7.64636C50.4747 7.63754 50.5672 7.84026 50.6819 8.15317ZM50.4777 8.34072C50.5924 8.65363 50.6528 8.86811 50.6287 8.87694C50.5846 8.89311 50.223 7.9439 50.2471 7.87309C50.2716 7.79088 50.2865 7.81921 50.4777 8.34072ZM50.2825 8.55311C50.3918 8.85112 50.4486 9.05567 50.4245 9.06449C50.4004 9.07331 50.3116 8.88052 50.2023 8.58252C50.0931 8.28451 50.0363 8.07996 50.0604 8.07114C50.0844 8.06231 50.1733 8.2551 50.2825 8.55311ZM50.0783 8.74066C50.1876 9.03867 50.2443 9.24322 50.2203 9.25204C50.1962 9.26087 50.1073 9.06808 49.9981 8.77007C49.8888 8.47206 49.8321 8.26751 49.8561 8.25869C49.8802 8.24987 49.9691 8.44266 50.0783 8.74066ZM50.0051 9.4098C49.9898 9.45486 49.9304 9.33013 49.8102 9.00232C49.5845 8.38645 49.6151 8.29633 49.8497 8.88646C49.956 9.15172 50.0204 9.36474 50.0051 9.4098ZM49.6607 9.09094C49.7645 9.37404 49.8177 9.56866 49.7936 9.57748C49.7495 9.59366 49.4243 8.74378 49.4484 8.67298C49.4728 8.59076 49.4878 8.61909 49.6607 9.09094ZM49.4383 9.22882C49.5293 9.47716 49.577 9.65688 49.553 9.6657C49.5289 9.67452 49.4491 9.50657 49.3581 9.25823C49.267 9.00989 49.2194 8.83017 49.2434 8.82135C49.2675 8.81253 49.3473 8.98049 49.4383 9.22882ZM46.7912 10.1992C46.8694 10.4128 46.9117 10.5776 46.8876 10.5864C46.8635 10.5953 46.7892 10.4422 46.7109 10.2286C46.6326 10.0151 46.5904 9.85025 46.6145 9.84143C46.6386 9.8326 46.7129 9.98566 46.7912 10.1992ZM47.0227 10.0862C47.0955 10.2848 47.1341 10.4397 47.11 10.4486C47.086 10.4574 47.0153 10.3143 46.9425 10.1156C46.8697 9.91691 46.8311 9.76203 46.8551 9.75321C46.8792 9.74438 46.9499 9.88751 47.0227 10.0862ZM47.2542 9.97312C47.3216 10.1569 47.3566 10.3018 47.3325 10.3107C47.3084 10.3195 47.2414 10.1863 47.174 10.0025C47.1067 9.81876 47.0717 9.67381 47.0958 9.66499C47.1199 9.65617 47.1869 9.78935 47.2542 9.97312ZM47.4967 9.88987C47.5714 10.0935 47.5954 10.2087 47.564 10.1976C47.4718 10.1694 47.2883 9.59441 47.3645 9.56648C47.3725 9.56354 47.4312 9.71107 47.4967 9.88987ZM49.2068 9.34188C49.2923 9.57532 49.3364 9.7451 49.3123 9.75392C49.2882 9.76274 49.2121 9.60472 49.1265 9.37128C49.041 9.13784 48.9969 8.96806 49.021 8.95924C49.045 8.95042 49.1212 9.10844 49.2068 9.34188ZM46.5687 10.3371C46.647 10.5507 46.6892 10.7155 46.6652 10.7243C46.6411 10.7331 46.5668 10.5801 46.4885 10.3665C46.4102 10.153 46.368 9.98813 46.392 9.97931C46.4161 9.97049 46.4904 10.1235 46.5687 10.3371ZM47.7446 9.82152C47.8047 9.98542 47.8379 10.1254 47.8138 10.1342C47.7897 10.1431 47.7245 10.0148 47.6644 9.85093C47.6043 9.68702 47.5712 9.54704 47.5953 9.53822C47.6194 9.5294 47.6846 9.65762 47.7446 9.82152ZM47.9914 9.91135C48.0162 10.0037 47.9827 9.9371 47.9171 9.7583C47.8516 9.57949 47.8341 9.50702 47.8731 9.58851C47.9139 9.67497 47.9685 9.82398 47.9914 9.91135ZM48.2259 9.64508C48.3006 9.84872 48.3191 9.94897 48.2871 9.96073C48.251 9.97397 48.208 9.89394 48.1392 9.6938C48.0197 9.34319 48.0285 9.37942 48.0766 9.36178C48.1007 9.35296 48.1659 9.48118 48.2259 9.64508ZM48.4757 9.5817C48.5431 9.76547 48.578 9.91042 48.5539 9.91924C48.5299 9.92806 48.4629 9.79488 48.3955 9.61111C48.3281 9.42733 48.2932 9.28238 48.3172 9.27356C48.3413 9.26474 48.4083 9.39793 48.4757 9.5817ZM48.7163 9.49348C48.7837 9.67725 48.8187 9.8222 48.7946 9.83102C48.7705 9.83985 48.7035 9.70666 48.6361 9.52289C48.5688 9.33912 48.5338 9.19417 48.5579 9.18534C48.582 9.17652 48.649 9.30971 48.7163 9.49348ZM48.9661 9.4301C49.0389 9.62877 49.0775 9.78365 49.0534 9.79247C49.0294 9.80129 48.9587 9.65817 48.8859 9.4595C48.8131 9.26083 48.7745 9.10595 48.7985 9.09712C48.8226 9.0883 48.8933 9.23142 48.9661 9.4301ZM46.3445 10.47C46.4191 10.6737 46.4704 10.8633 46.4518 10.887C46.435 10.9157 46.3698 10.7875 46.277 10.5342C46.1914 10.3008 46.1455 10.126 46.1696 10.1172C46.1937 10.1084 46.2662 10.2565 46.3445 10.47ZM46.1238 10.6129C46.2021 10.8265 46.2443 10.9913 46.2203 11.0001C46.1962 11.0089 46.1219 10.8559 46.0436 10.6423C45.9653 10.4287 45.9231 10.2639 45.9472 10.2551C45.9712 10.2463 46.0455 10.3993 46.1238 10.6129ZM45.8879 10.7388C45.9527 10.9404 45.9927 11.1117 45.9687 11.1205C45.9486 11.1279 45.8645 10.9728 45.7836 10.777C45.6664 10.482 45.6525 10.4194 45.7047 10.4003C45.7568 10.3812 45.7867 10.4379 45.8879 10.7388ZM45.6851 11.0667C45.7153 11.174 45.68 11.1024 45.6108 10.9137C45.5398 10.72 45.5186 10.6375 45.5576 10.719C45.5984 10.8055 45.6567 10.9644 45.6851 11.0667ZM45.4339 10.9898C45.5654 11.3979 45.4764 11.4531 45.3289 11.0508C45.2415 10.8124 45.2299 10.7434 45.278 10.7258C45.3301 10.7066 45.3582 10.7583 45.4339 10.9898ZM45.1849 11.1543C45.234 11.2884 45.2598 11.4085 45.2358 11.4173C45.2157 11.4247 45.1538 11.3178 45.1046 11.1837C45.0537 11.0446 45.0337 10.928 45.0537 10.9207C45.0778 10.9118 45.1339 11.0152 45.1849 11.1543ZM44.9533 11.2674C44.9988 11.3915 45.0192 11.4967 44.9951 11.5056C44.951 11.5217 44.8061 11.1636 44.832 11.0977C44.8542 11.022 44.8696 11.0389 44.9533 11.2674ZM44.7309 11.4052C44.7655 11.4996 44.7785 11.585 44.7545 11.5938C44.7104 11.61 44.6018 11.3511 44.6277 11.2853C44.65 11.2095 44.6653 11.2264 44.7309 11.4052ZM44.5175 11.568C44.5467 11.6474 44.5561 11.7228 44.532 11.7317C44.512 11.739 44.4664 11.6768 44.4373 11.5974C44.4064 11.5129 44.4027 11.441 44.4228 11.4337C44.4469 11.4248 44.4866 11.4835 44.5175 11.568ZM44.3042 11.7307C44.3297 11.8002 44.3337 11.8607 44.3096 11.8696C44.2895 11.8769 44.2495 11.8296 44.224 11.7601C44.1985 11.6906 44.1985 11.6286 44.2186 11.6212C44.2426 11.6124 44.2787 11.6611 44.3042 11.7307ZM44.0909 11.8934C44.1163 11.9629 44.093 12.0109 43.9898 12.0769C43.911 12.1227 43.7123 12.2632 43.546 12.3805C43.3815 12.5028 43.2338 12.5963 43.2203 12.5844C43.1988 12.5754 43.9516 11.8487 44.0282 11.8093C44.0424 11.7985 44.0708 11.8388 44.0909 11.8934Z" fill="white"></path> <defs> <linearGradient id="paint0_linear_486_1188" x1="26.8804" y1="0" x2="26.8804" y2="37.7608" gradientUnits="userSpaceOnUse"> <stop stop-color="#47B6BD"></stop> <stop offset="1" stop-color="#244EA7"></stop> </linearGradient> </defs> </svg> 