<svg width="40" height="40" viewBox="0 0 40 40" fill="none" xmlns="http://www.w3.org/2000/svg">
<path opacity="0.4" d="M36.6667 20.0082C36.6667 29.1897 29.186 36.6668 20 36.6668C10.8141 36.6668 3.33337 29.1897 3.33337 20.0082C3.33337 10.8106 10.8141 3.3335 20 3.3335C29.186 3.3335 36.6667 10.8106 36.6667 20.0082Z" fill="url(#paint0_linear_6012_38)"/>
<path d="M26.6667 20.0083C26.6667 20.4295 26.5341 20.8523 26.2689 21.1909C26.2192 21.2574 25.9872 21.5311 25.8049 21.7094L25.7055 21.8066C24.3134 23.2825 20.8499 25.502 19.0933 26.2132C19.0933 26.2294 18.0492 26.6522 17.5521 26.6668H17.4858C16.7235 26.6668 16.0109 26.2472 15.6463 25.5668C15.4474 25.1925 15.2652 24.1071 15.2486 24.0925C15.0994 23.1188 15 21.6284 15 19.9921C15 18.2764 15.0994 16.7195 15.2817 15.7636C15.2817 15.7474 15.464 14.8726 15.58 14.581C15.7623 14.1614 16.0938 13.8033 16.508 13.5765C16.8395 13.4161 17.1875 13.3335 17.5521 13.3335C17.9332 13.3513 18.6458 13.5927 18.9276 13.7061C20.7836 14.419 24.33 16.7519 25.6889 18.1776C25.9209 18.4044 26.1695 18.6814 26.2358 18.7446C26.5175 19.101 26.6667 19.5384 26.6667 20.0083Z" fill="url(#paint1_linear_6012_38)"/>
<defs>
<linearGradient id="paint0_linear_6012_38" x1="20" y1="3.3335" x2="20" y2="36.6668" gradientUnits="userSpaceOnUse">
<stop stop-color="#6F77FF"/>
<stop offset="1" stop-color="#943E87"/>
</linearGradient>
<linearGradient id="paint1_linear_6012_38" x1="20.8333" y1="13.3335" x2="20.8333" y2="26.6668" gradientUnits="userSpaceOnUse">
<stop stop-color="#6F77FF"/>
<stop offset="1" stop-color="#943E87"/>
</linearGradient>
</defs>
</svg>
